<svg width="360" height="48" viewBox="0 0 360 48" fill="none" xmlns="http://www.w3.org/2000/svg">
<rect width="360" height="48" fill="white"/>
<path d="M23.0799 28V20.7434H20.2264V19.3904H27.5322V20.7434H24.6788V28H23.0799ZM35.8084 19.3904H37.4074V28H35.8084V19.3904ZM31.3561 28H29.7571V19.3904H31.3561V28ZM35.9314 24.3102H31.2208V22.945H35.9314V24.3102ZM42.2152 22.9696H46.4954V24.2856H42.2152V22.9696ZM42.3382 26.6594H47.1965V28H40.7393V19.3904H47.0243V20.7311H42.3382V26.6594Z" fill="black"/>
<rect width="74.5873" height="14.6622" transform="translate(52 16.6689)" fill="black"/>
<path d="M55.245 28V19.3904H58.7873C59.5498 19.3904 60.2017 19.5134 60.7429 19.7594C61.2922 20.0054 61.7145 20.358 62.0097 20.8172C62.3049 21.2763 62.4525 21.8216 62.4525 22.453C62.4525 23.0843 62.3049 23.6296 62.0097 24.0888C61.7145 24.548 61.2922 24.9006 60.7429 25.1465C60.2017 25.3925 59.5498 25.5155 58.7873 25.5155H56.1306L56.844 24.7653V28H55.245ZM56.844 24.9375L56.1306 24.1626H58.7135C59.4186 24.1626 59.9475 24.015 60.3001 23.7198C60.6609 23.4164 60.8413 22.9942 60.8413 22.453C60.8413 21.9036 60.6609 21.4813 60.3001 21.1861C59.9475 20.891 59.4186 20.7434 58.7135 20.7434H56.1306L56.844 19.9562V24.9375ZM65.0741 28V19.3904H68.6164C69.3789 19.3904 70.0308 19.5134 70.572 19.7594C71.1213 20.0054 71.5436 20.358 71.8388 20.8172C72.134 21.2763 72.2816 21.8216 72.2816 22.453C72.2816 23.0843 72.134 23.6296 71.8388 24.0888C71.5436 24.5398 71.1213 24.8883 70.572 25.1342C70.0308 25.372 69.3789 25.4909 68.6164 25.4909H65.9597L66.673 24.7653V28H65.0741ZM70.7072 28L68.5303 24.876H70.2399L72.4292 28H70.7072ZM66.673 24.9375L65.9597 24.1749H68.5426C69.2477 24.1749 69.7766 24.0232 70.1292 23.7198C70.49 23.4164 70.6703 22.9942 70.6703 22.453C70.6703 21.9036 70.49 21.4813 70.1292 21.1861C69.7766 20.891 69.2477 20.7434 68.5426 20.7434H65.9597L66.673 19.9562V24.9375ZM79.1296 28.123C78.4572 28.123 77.8382 28.0123 77.2724 27.7909C76.7066 27.5695 76.2146 27.262 75.7965 26.8685C75.3783 26.4667 75.0544 25.9993 74.8248 25.4663C74.5952 24.9252 74.4804 24.3348 74.4804 23.6952C74.4804 23.0557 74.5952 22.4694 74.8248 21.9364C75.0544 21.3952 75.3783 20.9279 75.7965 20.5343C76.2146 20.1325 76.7066 19.8209 77.2724 19.5995C77.8382 19.3781 78.4531 19.2674 79.1173 19.2674C79.7897 19.2674 80.4046 19.3781 80.9622 19.5995C81.528 19.8209 82.0199 20.1325 82.4381 20.5343C82.8563 20.9279 83.1802 21.3952 83.4098 21.9364C83.6394 22.4694 83.7542 23.0557 83.7542 23.6952C83.7542 24.3348 83.6394 24.9252 83.4098 25.4663C83.1802 26.0075 82.8563 26.4749 82.4381 26.8685C82.0199 27.262 81.528 27.5695 80.9622 27.7909C80.4046 28.0123 79.7938 28.123 79.1296 28.123ZM79.1173 26.7209C79.5519 26.7209 79.9537 26.6471 80.3226 26.4995C80.6916 26.3519 81.0114 26.1428 81.282 25.8722C81.5526 25.5934 81.7617 25.2736 81.9093 24.9129C82.065 24.5439 82.1429 24.138 82.1429 23.6952C82.1429 23.2524 82.065 22.8507 81.9093 22.4899C81.7617 22.1209 81.5526 21.8011 81.282 21.5305C81.0114 21.2517 80.6916 21.0386 80.3226 20.891C79.9537 20.7434 79.5519 20.6696 79.1173 20.6696C78.6827 20.6696 78.2809 20.7434 77.912 20.891C77.5512 21.0386 77.2314 21.2517 76.9526 21.5305C76.682 21.8011 76.4688 22.1209 76.313 22.4899C76.1654 22.8507 76.0916 23.2524 76.0916 23.6952C76.0916 24.1298 76.1654 24.5316 76.313 24.9006C76.4688 25.2695 76.682 25.5934 76.9526 25.8722C77.2232 26.1428 77.543 26.3519 77.912 26.4995C78.2809 26.6471 78.6827 26.7209 79.1173 26.7209ZM86.4739 28V19.3904H90.2375C91.1723 19.3904 91.9922 19.5708 92.6974 19.9316C93.4026 20.2924 93.9519 20.7926 94.3455 21.4321C94.7391 22.0717 94.9359 22.8261 94.9359 23.6952C94.9359 24.5562 94.7391 25.3105 94.3455 25.9583C93.9519 26.5979 93.4026 27.098 92.6974 27.4588C91.9922 27.8196 91.1723 28 90.2375 28H86.4739ZM88.0728 26.6471H90.1637C90.8115 26.6471 91.3691 26.5241 91.8365 26.2781C92.312 26.0321 92.6769 25.6877 92.9311 25.2449C93.1935 24.8022 93.3247 24.2856 93.3247 23.6952C93.3247 23.0966 93.1935 22.5801 92.9311 22.1455C92.6769 21.7027 92.312 21.3583 91.8365 21.1123C91.3691 20.8664 90.8115 20.7434 90.1637 20.7434H88.0728V26.6471ZM101.362 28.123C100.182 28.123 99.2551 27.7909 98.5827 27.1267C97.9186 26.4626 97.5865 25.5032 97.5865 24.2487V19.3904H99.1854V24.1872C99.1854 25.0727 99.374 25.7164 99.7512 26.1182C100.137 26.52 100.678 26.7209 101.375 26.7209C102.072 26.7209 102.609 26.52 102.986 26.1182C103.363 25.7164 103.552 25.0727 103.552 24.1872V19.3904H105.126V24.2487C105.126 25.5032 104.79 26.4626 104.117 27.1267C103.453 27.7909 102.535 28.123 101.362 28.123ZM112.375 28.123C111.719 28.123 111.108 28.0164 110.543 27.8032C109.985 27.5818 109.497 27.2743 109.079 26.8808C108.669 26.479 108.349 26.0075 108.12 25.4663C107.89 24.9252 107.775 24.3348 107.775 23.6952C107.775 23.0557 107.89 22.4653 108.12 21.9241C108.349 21.3829 108.673 20.9156 109.091 20.522C109.509 20.1202 109.997 19.8127 110.555 19.5995C111.112 19.3781 111.723 19.2674 112.387 19.2674C113.093 19.2674 113.736 19.3904 114.318 19.6364C114.901 19.8742 115.393 20.2309 115.794 20.7065L114.761 21.6781C114.45 21.3419 114.101 21.0919 113.716 20.9279C113.33 20.7557 112.912 20.6696 112.461 20.6696C112.01 20.6696 111.596 20.7434 111.219 20.891C110.85 21.0386 110.526 21.2476 110.247 21.5182C109.977 21.7888 109.764 22.1086 109.608 22.4776C109.46 22.8466 109.386 23.2524 109.386 23.6952C109.386 24.138 109.46 24.5439 109.608 24.9129C109.764 25.2818 109.977 25.6016 110.247 25.8722C110.526 26.1428 110.85 26.3519 111.219 26.4995C111.596 26.6471 112.01 26.7209 112.461 26.7209C112.912 26.7209 113.33 26.6389 113.716 26.4749C114.101 26.3027 114.45 26.0444 114.761 25.7L115.794 26.684C115.393 27.1513 114.901 27.508 114.318 27.754C113.736 28 113.089 28.123 112.375 28.123ZM120.002 28V20.7434H117.148V19.3904H124.454V20.7434H121.601V28H120.002Z" fill="white"/>
<path d="M132.061 28V19.3904H135.604C136.366 19.3904 137.018 19.5134 137.559 19.7594C138.108 20.0054 138.531 20.358 138.826 20.8172C139.121 21.2763 139.269 21.8216 139.269 22.453C139.269 23.0843 139.121 23.6296 138.826 24.0888C138.531 24.548 138.108 24.9006 137.559 25.1465C137.018 25.3925 136.366 25.5155 135.604 25.5155H132.947L133.66 24.7653V28H132.061ZM133.66 24.9375L132.947 24.1626H135.53C136.235 24.1626 136.764 24.015 137.116 23.7198C137.477 23.4164 137.658 22.9942 137.658 22.453C137.658 21.9036 137.477 21.4813 137.116 21.1861C136.764 20.891 136.235 20.7434 135.53 20.7434H132.947L133.66 19.9562V24.9375ZM141.89 28V19.3904H143.489V26.6471H147.991V28H141.89ZM149.073 28L152.947 19.3904H154.521L158.408 28H156.735L153.402 20.2391H154.041L150.721 28H149.073ZM150.856 26.0075L151.286 24.753H155.936L156.366 26.0075H150.856ZM161.842 28V20.7434H158.988V19.3904H166.294V20.7434H163.441V28H161.842ZM169.983 23.3508H174.275V24.7038H169.983V23.3508ZM170.118 28H168.519V19.3904H174.804V20.7311H170.118V28ZM181.313 28.123C180.641 28.123 180.022 28.0123 179.456 27.7909C178.89 27.5695 178.398 27.262 177.98 26.8685C177.562 26.4667 177.238 25.9993 177.009 25.4663C176.779 24.9252 176.664 24.3348 176.664 23.6952C176.664 23.0557 176.779 22.4694 177.009 21.9364C177.238 21.3952 177.562 20.9279 177.98 20.5343C178.398 20.1325 178.89 19.8209 179.456 19.5995C180.022 19.3781 180.637 19.2674 181.301 19.2674C181.973 19.2674 182.588 19.3781 183.146 19.5995C183.712 19.8209 184.204 20.1325 184.622 20.5343C185.04 20.9279 185.364 21.3952 185.594 21.9364C185.823 22.4694 185.938 23.0557 185.938 23.6952C185.938 24.3348 185.823 24.9252 185.594 25.4663C185.364 26.0075 185.04 26.4749 184.622 26.8685C184.204 27.262 183.712 27.5695 183.146 27.7909C182.588 28.0123 181.977 28.123 181.313 28.123ZM181.301 26.7209C181.736 26.7209 182.137 26.6471 182.506 26.4995C182.875 26.3519 183.195 26.1428 183.466 25.8722C183.736 25.5934 183.945 25.2736 184.093 24.9129C184.249 24.5439 184.327 24.138 184.327 23.6952C184.327 23.2524 184.249 22.8507 184.093 22.4899C183.945 22.1209 183.736 21.8011 183.466 21.5305C183.195 21.2517 182.875 21.0386 182.506 20.891C182.137 20.7434 181.736 20.6696 181.301 20.6696C180.866 20.6696 180.465 20.7434 180.096 20.891C179.735 21.0386 179.415 21.2517 179.136 21.5305C178.866 21.8011 178.653 22.1209 178.497 22.4899C178.349 22.8507 178.275 23.2524 178.275 23.6952C178.275 24.1298 178.349 24.5316 178.497 24.9006C178.653 25.2695 178.866 25.5934 179.136 25.8722C179.407 26.1428 179.727 26.3519 180.096 26.4995C180.465 26.6471 180.866 26.7209 181.301 26.7209ZM188.658 28V19.3904H192.2C192.962 19.3904 193.614 19.5134 194.155 19.7594C194.705 20.0054 195.127 20.358 195.422 20.8172C195.717 21.2763 195.865 21.8216 195.865 22.453C195.865 23.0843 195.717 23.6296 195.422 24.0888C195.127 24.5398 194.705 24.8883 194.155 25.1342C193.614 25.372 192.962 25.4909 192.2 25.4909H189.543L190.257 24.7653V28H188.658ZM194.291 28L192.114 24.876H193.823L196.013 28H194.291ZM190.257 24.9375L189.543 24.1749H192.126C192.831 24.1749 193.36 24.0232 193.713 23.7198C194.073 23.4164 194.254 22.9942 194.254 22.453C194.254 21.9036 194.073 21.4813 193.713 21.1861C193.36 20.891 192.831 20.7434 192.126 20.7434H189.543L190.257 19.9562V24.9375ZM198.679 28V19.3904H199.995L203.759 25.6754H203.07L206.772 19.3904H208.088L208.1 28H206.587L206.575 21.7642H206.895L203.746 27.016H203.033L199.835 21.7642H200.204V28H198.679Z" fill="black"/>
</svg>
